<?xml version="1.0" encoding="UTF-8"?>
<svg xmlns="http://www.w3.org/2000/svg" version="1.1" viewBox="0 0 55.7 70.1">
  <defs>
    <style>
      .cls-1 {
        fill: #00557c;
      }

      .cls-2 {
        fill: #30383b;
      }

      .cls-3 {
        fill: #505456;
      }
    </style>
  </defs>
  <!-- Generator: Adobe Illustrator 28.7.1, SVG Export Plug-In . SVG Version: 1.2.0 Build 142)  -->
  <g>
    <g id="Layer_1">
      <g>
        <rect class="cls-2" x="1.8" y="58.3" width="3.1" height="10.1"/>
        <polygon class="cls-2" points="13.8 58.3 13.8 63.9 10.1 58.3 7.2 58.3 7.2 68.4 10.1 68.4 10.1 62.8 13.8 68.4 16.8 68.4 16.8 58.3 13.8 58.3"/>
        <path class="cls-2" d="M25.4,58.3h3.1v6c0,.6,0,1.2-.3,1.7-.2.5-.5,1-.9,1.4-.4.4-.8.7-1.2.8-.6.2-1.3.3-2.2.3s-1,0-1.6-.1c-.6,0-1.1-.2-1.4-.4-.4-.2-.7-.5-1.1-.9-.3-.4-.5-.8-.7-1.2-.2-.6-.3-1.2-.3-1.7v-6h3.1v6.1c0,.5.2,1,.5,1.3.3.3.7.5,1.3.5s1-.2,1.3-.5c.3-.3.5-.7.5-1.3v-6.1Z"/>
        <polygon class="cls-2" points="37.7 58.3 36.1 64.4 34.6 58.3 30.5 58.3 30.5 68.4 33 68.4 33 60.7 35 68.4 37.3 68.4 39.2 60.7 39.2 68.4 41.8 68.4 41.8 58.3 37.7 58.3"/>
        <path class="cls-2" d="M48.2,60.9l1.1,3.6h-2.2l1.1-3.6ZM46.5,58.3l-3.8,10.1h3.2l.5-1.7h3.5l.5,1.7h3.3l-3.8-10.1h-3.4Z"/>
        <polygon class="cls-3" points="53.8 2 40.6 14.7 40.6 24.1 53.8 24.1 53.8 2"/>
        <polygon class="cls-3" points="2 2 2 24.1 15.2 24.1 15.2 14.7 2 2"/>
        <polygon class="cls-3" points="2 29.5 2 51.7 15.2 38.9 15.2 29.5 2 29.5"/>
        <polygon class="cls-3" points="40.6 29.5 53.8 29.5 53.8 51.7 40.6 38.9 40.6 29.5"/>
        <rect class="cls-1" x="19.5" y="19" width="16.7" height="16"/>
        <polygon class="cls-2" points="2 2 15.2 14.7 40.6 14.7 53.8 2 2 2"/>
        <polygon class="cls-2" points="15.2 38.9 2 51.7 53.8 51.7 40.6 38.9 15.2 38.9"/>
      </g>
    </g>
  </g>
</svg>